<svg id="Calque_1" data-name="Calque 1" xmlns="http://www.w3.org/2000/svg" viewBox="0 0 56 56"><defs><style>.cls-1{fill:#0e34e5;}</style></defs><g id="Groupe_31" data-name="Groupe 31"><rect id="Rectangle_20" data-name="Rectangle 20" class="cls-1" x="20.47" y="14.47" width="14.85" height="5.77"/><path id="Tracé_54" data-name="Tracé 54" class="cls-1" d="M33.3,23.71a.84.84,0,0,0-.95.69A4.51,4.51,0,0,1,28.83,28h0a.83.83,0,0,0,.37,1.61A6.18,6.18,0,0,0,34,24.71h0s0,0,0-.05A.83.83,0,0,0,33.3,23.71Z"/><path id="Tracé_55" data-name="Tracé 55" class="cls-1" d="M28,0A28,28,0,1,0,56,28h0A28,28,0,0,0,28,0Zm9.8,24A10.31,10.31,0,0,1,28.72,34.2v8.33h4.54a1.24,1.24,0,1,1,0,2.47l-5.77,0h0l-4.95,0a1.24,1.24,0,0,1,0-2.47h3.71V34.19A9.48,9.48,0,0,1,18,24.79V13.24A1.23,1.23,0,0,1,19.24,12H36.56a1.23,1.23,0,0,1,1.24,1.24Z"/></g></svg>