<svg id="Calque_1" data-name="Calque 1" xmlns="http://www.w3.org/2000/svg" viewBox="0 0 56 56"><defs><style>.cls-1{fill:#0e34e5;}</style></defs><path id="Exclusion_1" data-name="Exclusion 1" class="cls-1" d="M28,56A28,28,0,0,1,2.2,17.1,28,28,0,0,1,28,0,28,28,0,0,1,53.8,38.9,28,28,0,0,1,28,56ZM22.48,30.11a4.17,4.17,0,0,1,.62,8.3l4.5,7.8L41.39,22.34a27.69,27.69,0,0,0-27.57,0l5.4,9.35A4.25,4.25,0,0,1,22.48,30.11Zm0,2.26a1.91,1.91,0,0,0-1.66,1l-.33.56,1.34,2.31h.65a1.92,1.92,0,1,0,0-3.83Zm5.13-16a29.85,29.85,0,0,1,14.9,4l1.7-2.93a33.21,33.21,0,0,0-33.21,0h0l1.69,2.92A30,30,0,0,1,27.61,16.4ZM31.1,34H28.84v-3H31.1v3Zm.26-4.66a4.18,4.18,0,1,1,4.18-4.18,4.18,4.18,0,0,1-4.18,4.18Zm0-6.1a1.92,1.92,0,1,0,1.92,1.92A1.92,1.92,0,0,0,31.36,23.19Zm-8.37,2H20.73v-3H23v3Z"/></svg>